<?xml version="1.0" standalone="no"?>
<!DOCTYPE svg PUBLIC "-//W3C//DTD SVG 20010904//EN"
 "http://www.w3.org/TR/2001/REC-SVG-20010904/DTD/svg10.dtd">
<svg version="1.0" xmlns="http://www.w3.org/2000/svg"
 width="1320.000000pt" height="1000.000000pt" viewBox="0 0 1320.000000 1000.000000"
 preserveAspectRatio="xMidYMid meet">

<g transform="translate(0.000000,1000.000000) scale(0.100000,-0.100000)"
fill="#000000" stroke="none">
<path d="M3150 5000 l0 -3500 3450 0 3450 0 0 3500 0 3500 -3450 0 -3450 0 0
-3500z m2860 2404 l0 -436 63 53 c139 116 328 162 531 129 137 -22 269 -116
323 -229 57 -121 56 -114 60 -683 l4 -528 -200 0 -201 0 0 423 c0 434 -6 520
-40 587 -78 154 -357 161 -465 12 -68 -94 -69 -99 -73 -584 l-3 -438 -200 0
-199 0 0 1065 0 1065 200 0 200 0 0 -436z m1578 384 c45 -13 98 -62 125 -112
45 -87 21 -205 -57 -273 -46 -41 -95 -56 -170 -51 -213 13 -287 287 -111 410
63 44 128 52 213 26z m-2660 -656 c148 -41 268 -119 350 -228 46 -61 98 -172
116 -245 l6 -26 -183 -19 -182 -19 -31 65 c-37 76 -80 120 -149 152 -42 19
-67 23 -155 23 -96 0 -110 -2 -163 -29 -32 -17 -74 -48 -94 -69 -146 -162
-141 -489 9 -639 118 -118 328 -130 464 -28 48 36 74 75 102 150 l10 26 183
-19 c101 -11 185 -21 186 -22 2 -1 -4 -26 -13 -56 -66 -222 -249 -391 -481
-446 -117 -27 -332 -25 -436 5 -273 78 -459 273 -518 542 -19 87 -16 276 5
363 34 143 121 285 229 375 90 75 232 138 365 162 79 15 298 4 380 -18z m3930
4 c150 -38 249 -112 307 -229 19 -40 40 -96 45 -126 6 -29 10 -221 10 -425 0
-350 8 -480 36 -613 l7 -33 -191 0 -190 0 -17 75 -17 76 -39 -39 c-112 -113
-383 -173 -564 -127 -134 35 -214 96 -263 204 -34 73 -43 219 -18 302 49 170
182 258 504 335 255 60 276 66 313 85 60 30 72 94 33 171 -49 95 -277 119
-393 42 -37 -24 -91 -106 -91 -137 0 -9 -5 -19 -10 -22 -12 -7 -322 44 -341
56 -9 5 -9 19 1 56 52 192 198 312 435 358 92 18 356 13 443 -9z m-1148 -716
l0 -710 -205 0 -205 0 0 710 0 710 205 0 205 0 0 -710z m-2164 -985 c233 -69
230 -403 -4 -471 -159 -47 -316 71 -316 236 0 72 16 114 68 168 68 73 155 96
252 67z m-866 -465 l0 -250 155 0 155 0 0 -165 0 -165 -155 0 -155 0 0 -377
c0 -363 1 -378 21 -420 31 -65 74 -83 194 -83 l95 0 0 -165 0 -165 -192 0
c-204 0 -255 8 -338 50 -60 29 -136 104 -165 161 -55 107 -58 132 -62 582 l-5
417 -149 0 -149 0 0 164 0 164 98 4 c80 3 105 8 142 28 88 49 110 115 110 330
l0 140 200 0 200 0 0 -250z m2330 -249 c295 -87 471 -315 498 -647 5 -60 7
-130 4 -156 l-4 -48 -569 0 c-566 0 -569 0 -569 -20 0 -51 34 -149 69 -200 50
-73 103 -112 190 -140 173 -55 369 8 441 142 l23 44 195 -28 c108 -15 198 -30
200 -33 10 -10 -78 -172 -125 -230 -134 -166 -345 -255 -602 -255 -412 1 -701
201 -792 548 -29 113 -36 312 -14 427 58 311 262 533 550 599 39 8 79 18 90
20 11 3 92 3 180 2 128 -3 175 -8 235 -25z m1884 4 c212 -59 330 -200 356
-430 5 -49 10 -321 10 -602 l0 -513 -220 0 -219 0 -3 518 c-3 583 -2 569 -80
637 -53 45 -116 65 -202 65 -182 -1 -299 -107 -326 -295 -5 -38 -10 -262 -10
-497 l0 -428 -215 0 -215 0 0 770 0 770 215 0 215 0 0 -83 0 -84 48 44 c58 54
185 119 272 138 82 19 290 13 374 -10z m-3204 -775 l0 -770 -220 0 -220 0 0
770 0 770 220 0 220 0 0 -770z m-267 -1332 c25 -14 53 -42 71 -72 27 -42 30
-58 30 -120 -1 -150 -101 -246 -244 -233 -133 12 -212 97 -212 228 0 85 39
160 107 205 57 37 173 33 248 -8z m-738 -128 l100 -160 3 160 2 160 45 0 45 0
0 -225 0 -226 -57 3 -56 3 -96 156 -96 156 -3 -158 -2 -159 -45 0 -45 0 0 225
0 225 53 0 52 0 100 -160z m1516 150 c20 -6 52 -20 70 -33 110 -73 106 -300
-8 -377 -33 -23 -47 -25 -165 -28 l-128 -4 0 226 0 226 98 0 c53 0 113 -5 133
-10z m575 -9 c52 -24 79 -74 69 -131 -7 -40 -42 -85 -76 -95 -17 -6 -12 -16
39 -93 32 -48 62 -93 66 -99 5 -10 -6 -13 -46 -13 l-54 0 -58 100 c-32 55 -64
100 -72 100 -11 0 -14 -21 -14 -100 l0 -100 -45 0 -45 0 0 225 0 225 98 0 c73
0 107 -5 138 -19z m589 -193 c43 -117 80 -219 82 -225 4 -9 -9 -13 -45 -13
l-49 0 -13 45 -13 45 -97 0 -97 0 -17 -45 c-17 -44 -18 -45 -63 -45 -32 0 -44
4 -40 13 2 6 40 108 83 225 l78 212 56 0 57 0 78 -212z m454 70 c25 -76 48
-138 51 -138 3 0 26 62 51 138 l45 137 66 3 67 3 5 -43 c3 -24 10 -104 16
-178 5 -74 12 -157 15 -183 l6 -48 -48 3 -48 3 -12 135 c-6 74 -13 149 -15
165 -2 23 -17 -10 -62 -137 l-59 -168 -31 0 -32 0 -54 165 c-30 90 -55 163
-56 162 -1 -1 -7 -56 -13 -122 -6 -66 -14 -139 -17 -162 l-5 -43 -46 0 -45 0
6 53 c3 28 10 115 16 192 6 77 13 155 16 173 l5 33 66 -3 67 -3 45 -137z m826
-70 c43 -117 80 -219 82 -225 4 -9 -9 -13 -45 -13 l-49 0 -13 45 -13 45 -97 0
-97 0 -17 -45 c-17 -44 -18 -45 -63 -45 -32 0 -44 4 -40 13 2 6 40 108 83 225
l78 212 56 0 57 0 78 -212z"/>
<path d="M8630 6291 c-107 -31 -209 -64 -227 -74 -98 -52 -93 -182 8 -242 27
-16 51 -20 114 -20 188 2 307 121 328 333 6 55 5 62 -11 61 -9 0 -105 -26
-212 -58z"/>
<path d="M6675 4439 c-70 -10 -147 -46 -193 -89 -33 -32 -84 -123 -96 -172
l-6 -28 354 0 354 0 -12 48 c-21 77 -45 120 -97 166 -72 65 -184 93 -304 75z"/>
<path d="M5233 2556 c-66 -30 -94 -133 -57 -211 37 -78 141 -94 217 -34 58 45
56 168 -3 224 -35 34 -107 43 -157 21z"/>
<path d="M6060 2426 l0 -146 55 0 c90 0 120 25 139 112 9 42 -12 123 -40 149
-19 18 -39 24 -89 27 l-65 4 0 -146z"/>
<path d="M6630 2515 l0 -55 38 0 c75 0 115 48 76 91 -12 14 -30 19 -66 19
l-48 0 0 -55z"/>
<path d="M7196 2477 c-15 -45 -30 -88 -33 -94 -3 -10 12 -13 61 -13 36 0 66 3
66 7 0 13 -52 168 -59 175 -4 5 -19 -29 -35 -75z"/>
<path d="M8478 2482 c-15 -42 -30 -85 -33 -94 -6 -16 0 -18 59 -18 36 0 66 3
66 7 0 13 -52 168 -59 175 -3 4 -18 -27 -33 -70z"/>
</g>
</svg>
